<svg id="visual" viewBox="0 0 960 540" width="960" height="540" xmlns="http://www.w3.org/2000/svg" xmlns:xlink="http://www.w3.org/1999/xlink" version="1.1"><rect x="0" y="0" width="960" height="540" fill="#202225"></rect><defs><linearGradient id="grad1_0" x1="43.8%" y1="0%" x2="100%" y2="100%"><stop offset="14.444444444444446%" stop-color="#202225" stop-opacity="1"></stop><stop offset="85.55555555555554%" stop-color="#202225" stop-opacity="1"></stop></linearGradient></defs><defs><linearGradient id="grad2_0" x1="0%" y1="0%" x2="56.3%" y2="100%"><stop offset="14.444444444444446%" stop-color="#202225" stop-opacity="1"></stop><stop offset="85.55555555555554%" stop-color="#202225" stop-opacity="1"></stop></linearGradient></defs><g transform="translate(960, 0)"><path d="M0 486C-71.3 486.3 -142.6 486.7 -186 449C-229.4 411.3 -244.9 335.6 -289.9 289.9C-335 244.2 -409.6 228.5 -447.2 185.2C-484.8 141.9 -485.4 71 -486 0L0 0Z" fill="#0965ef"></path></g><g transform="translate(0, 540)"><path d="M0 -486C68.1 -476.4 136.1 -466.8 177.2 -427.8C218.2 -388.7 232.3 -320.2 280 -280C327.7 -239.8 409.1 -227.9 449 -186C488.9 -144 487.5 -72 486 0L0 0Z" fill="#0965ef"></path></g></svg>